<svg width="200" height="40" viewBox="0 0 200 40" fill="none" xmlns="http://www.w3.org/2000/svg" role="img" aria-label="North Harrier">
  <!-- Harrier bird mark -->
  <g transform="translate(2 2)">
    <circle cx="18" cy="18" r="18" fill="#0f766e"/>
    <!-- soaring harrier silhouette -->
    <path d="M7 20c4-1 7-3 9-6 1 2 1 3 2 4 2-3 5-5 9-6-3 3-5 5-6 8 2 0 3 0 5-1-3 3-7 5-12 5-3 0-5-1-7-4z" fill="#f0fdfa"/>
    <path d="M18 18c0 4 2 7 5 8-3 0-6-1-8-3 1-2 2-3 3-5z" fill="#99f6e4"/>
  </g>
  <!-- Wordmark -->
  <text x="46" y="18" font-family="Inter, system-ui, sans-serif" font-size="16" font-weight="700" fill="#0f172a">North</text>
  <text x="46" y="33" font-family="Inter, system-ui, sans-serif" font-size="16" font-weight="700" fill="#0f766e">Harrier</text>
</svg>
